<svg xmlns="http://www.w3.org/2000/svg" viewBox="0 0 1667.76 340"><defs><style>.cls-1{fill:none;}.cls-2,.cls-3{fill:#bcbcbc;}.cls-3{font-size:62px;font-family:ProductSans-Regular, Product Sans;}.cls-4{letter-spacing:0em;}.cls-5{letter-spacing:-0.02em;}.cls-6{letter-spacing:-0.01em;}.cls-7{letter-spacing:0em;}.cls-8{letter-spacing:-0.04em;}.cls-9{letter-spacing:-0.07em;}.cls-10{letter-spacing:-0.02em;}.cls-11{letter-spacing:-0.02em;}.cls-12{fill:#5471f9;}.cls-13{fill:#ff6c00;}</style></defs><title>Asset 1</title><g id="Layer_2" data-name="Layer 2"><g id="Layer_1-2" data-name="Layer 1"><rect class="cls-1" width="1520" height="340"/><path class="cls-2" d="M992.64,104H954.17v26.79h34.69V141H954.17v26.79h38.47v10.38H943.32V93.64h49.32Z"/><path class="cls-2" d="M1050,178.13h-12.74L1023,156.77l-14,21.36H996.18l20.41-29.38-19.94-28.44h12.27l14.28,20.41,13.57-20.41h12.74l-20.18,28.44Z"/><path class="cls-2" d="M1080.2,179.07q-9.09,0-13.87-4.84t-4.78-13.69V130.22h-10.15v-9.91h10.15v-17.7h10.86v17.7h14.16v9.91h-14.16v29.5q0,9.44,7.79,9.44a11.59,11.59,0,0,0,5-.94l3.78,9.32A22,22,0,0,1,1080.2,179.07Z"/><path class="cls-2" d="M1120.2,180q-13.1,0-21.3-8.73t-8.2-22.07a31.84,31.84,0,0,1,8-21.71,25.86,25.86,0,0,1,20.36-9.09q12.86,0,20.59,8.38t7.73,22.42l-.12,2h-45.67Q1102,160,1107.4,165A17.71,17.71,0,0,0,1120,170.1q11.68,0,15.81-9.91l9.68,4a25.92,25.92,0,0,1-9.32,11.27Q1129.64,180,1120.2,180Zm15.58-37.76a15.41,15.41,0,0,0-4.54-9.44q-4.19-4.48-12.45-4.48a15.57,15.57,0,0,0-10.44,3.78,19.28,19.28,0,0,0-6.08,10.15Z"/><path class="cls-2" d="M1165.27,120.31v8h.47a19.21,19.21,0,0,1,7.43-7,21.57,21.57,0,0,1,10.86-2.89q10.74,0,16.4,6.61t5.66,17.7v35.4h-10.86V144.38q0-16-14.28-16a13.36,13.36,0,0,0-11,5.37,19.49,19.49,0,0,0-4.25,12.45v32h-10.86V120.31Z"/><path class="cls-2" d="M1240.67,180q-11.21,0-19.35-8.85t-8.14-21.95q0-13.1,8.14-21.95t19.35-8.85a24.59,24.59,0,0,1,11.86,2.83,20.06,20.06,0,0,1,7.85,7.08h.47l-.47-8V93.64h10.86v84.49h-10.38v-8h-.47a20.06,20.06,0,0,1-7.85,7.08A24.58,24.58,0,0,1,1240.67,180Zm1.77-9.91a17.3,17.3,0,0,0,13-5.66q5.37-5.66,5.37-15.22T1255.48,134a17.71,17.71,0,0,0-26,.06q-5.43,5.72-5.43,15.16t5.43,15.16A17.27,17.27,0,0,0,1242.45,170.1Z"/><path class="cls-2" d="M1307.7,180q-13.1,0-21.3-8.73t-8.2-22.07a31.84,31.84,0,0,1,8-21.71,25.86,25.86,0,0,1,20.36-9.09q12.86,0,20.59,8.38t7.73,22.42l-.12,2h-45.67q.47,8.73,5.84,13.81a17.71,17.71,0,0,0,12.57,5.07q11.68,0,15.81-9.91l9.68,4a25.92,25.92,0,0,1-9.32,11.27Q1317.14,180,1307.7,180Zm15.58-37.76a15.41,15.41,0,0,0-4.54-9.44q-4.19-4.48-12.45-4.48a15.57,15.57,0,0,0-10.44,3.78,19.28,19.28,0,0,0-6.08,10.15Z"/><path class="cls-2" d="M1367.17,180q-11.21,0-19.35-8.85t-8.14-21.95q0-13.1,8.14-21.95t19.35-8.85a24.59,24.59,0,0,1,11.86,2.83,20.06,20.06,0,0,1,7.85,7.08h.47l-.47-8V93.64h10.86v84.49h-10.38v-8h-.47a20.06,20.06,0,0,1-7.85,7.08A24.58,24.58,0,0,1,1367.17,180Zm1.77-9.91a17.3,17.3,0,0,0,13-5.66q5.37-5.66,5.37-15.22T1382,134a17.71,17.71,0,0,0-26,.06q-5.43,5.72-5.43,15.16t5.43,15.16A17.27,17.27,0,0,0,1368.94,170.1Z"/><text class="cls-3" transform="translate(938.74 244.13)">In<tspan class="cls-4" x="48.24" y="0">h</tspan><tspan x="81.53" y="0">a</tspan><tspan class="cls-5" x="113.27" y="0"> </tspan><tspan x="125.67" y="0">Uni</tspan><tspan class="cls-6" x="212.72" y="0">v</tspan><tspan x="242.66" y="0">e</tspan><tspan class="cls-5" x="275.89" y="0">r</tspan><tspan class="cls-4" x="297.16" y="0">si</tspan><tspan class="cls-7" x="338.39" y="0">t</tspan><tspan x="360.65" y="0">y in</tspan><tspan class="cls-8" x="452.4" y="0"> </tspan><tspan class="cls-9" x="463.56" y="0">T</tspan><tspan class="cls-4" x="492.39" y="0">a</tspan><tspan x="523.83" y="0">sh</tspan><tspan class="cls-10" x="585.64" y="0">k</tspan><tspan x="614.65" y="0">e</tspan><tspan class="cls-11" x="647.88" y="0">n</tspan><tspan x="679.94" y="0">t</tspan></text><path id="_Path_" data-name="&lt;Path&gt;" class="cls-2" d="M85.34,167.21c0-28.93,24.32-52.48,53.25-52.48a50,50,0,0,1,36,14.46L164.45,139.3a36.56,36.56,0,0,0-25.86-10.24c-21.12,0-37.63,17-37.63,38.15s16.51,38.15,37.63,38.15c13.7,0,21.5-5.5,26.5-10.5,4.1-4.1,6.78-10,7.81-18H138.59V162.47h48.26a46.71,46.71,0,0,1,.77,9c0,10.75-2.94,24.06-12.42,33.54-9.22,9.6-21,14.72-36.61,14.72C109.66,219.69,85.34,196.14,85.34,167.21Z"/><path id="_Compound_Path_" data-name="&lt;Compound Path&gt;" class="cls-2" d="M226.62,152.11c-18.69,0-33.92,14.21-33.92,33.79s15.23,33.79,33.92,33.79,33.92-14.34,33.92-33.79S245.31,152.11,226.62,152.11Zm0,54.27c-10.24,0-19.07-8.45-19.07-20.48s8.83-20.48,19.07-20.48,19.07,8.32,19.07,20.48S236.86,206.38,226.62,206.38Z"/><path id="_Compound_Path_2" data-name="&lt;Compound Path&gt;" class="cls-2" d="M300.62,152.11c-18.69,0-33.92,14.21-33.92,33.79s15.23,33.79,33.92,33.79,33.92-14.34,33.92-33.79S319.31,152.11,300.62,152.11Zm0,54.27c-10.24,0-19.07-8.45-19.07-20.48s8.83-20.48,19.07-20.48,19.07,8.32,19.07,20.48S310.86,206.38,300.62,206.38Z"/><path id="_Compound_Path_3" data-name="&lt;Compound Path&gt;" class="cls-2" d="M391.45,154.15v5.5h-.51c-3.33-4-9.73-7.55-17.79-7.55-16.9,0-32.39,14.85-32.39,33.92s15.49,33.67,32.39,33.67c8.06,0,14.46-3.58,17.79-7.68h.51v4.86c0,12.93-6.91,19.84-18,19.84-9.09,0-14.72-6.53-17-12l-12.93,5.38a32.2,32.2,0,0,0,30,20c17.41,0,32.13-10.24,32.13-35.2V154.15Zm-17,52.23c-10.24,0-18.82-8.58-18.82-20.35s8.58-20.61,18.82-20.61,18,8.7,18,20.61S384.54,206.38,374.43,206.38Z"/><rect id="_Path_2" data-name="&lt;Path&gt;" class="cls-2" x="415.77" y="118.31" width="14.85" height="99.33"/><path id="_Compound_Path_4" data-name="&lt;Compound Path&gt;" class="cls-2" d="M471.33,206.38c-7.55,0-12.93-3.46-16.38-10.24l45.19-18.69-1.54-3.84c-2.82-7.55-11.39-21.5-28.93-21.5s-31.87,13.7-31.87,33.79c0,18.94,14.34,33.79,33.54,33.79a33.61,33.61,0,0,0,28.16-15L488,197C484.13,202.67,478.88,206.38,471.33,206.38Zm-1.15-41.22c5.89,0,10.88,2.94,12.54,7.17l-30.21,12.54C452.13,171.82,462.62,165.16,470.17,165.16Z"/><rect id="_Rectangle_" data-name="&lt;Rectangle&gt;" class="cls-12" x="556.62" y="84.2" width="84.97" height="169.93"/><rect id="_Path_3" data-name="&lt;Path&gt;" class="cls-13" x="562.91" y="165.55" width="241.89" height="12.55" transform="translate(365.39 800.92) rotate(-77.25)"/><path class="cls-12" d="M799.38,81.17a88,88,0,1,0,88,88A88,88,0,0,0,799.38,81.17Zm0,163.5a75.5,75.5,0,1,1,75.5-75.5A75.5,75.5,0,0,1,799.38,244.67Z"/><path class="cls-13" d="M781.92,190.78V159.15l-7.22,3-2.86-6.62,12-5.61h5.91v40.82Z"/><path class="cls-13" d="M799.1,188.09l17-30.37-.18-.36h-18.8l.12-7.4h27.69v7.76l-19.27,34Z"/></g></g></svg>