<?xml version="1.0" encoding="utf-8"?>
<!-- Generator: Adobe Illustrator 21.0.1, SVG Export Plug-In . SVG Version: 6.00 Build 0)  -->
<svg version="1.1" id="Layer_4" xmlns="http://www.w3.org/2000/svg" xmlns:xlink="http://www.w3.org/1999/xlink" x="0px" y="0px"
	 viewBox="0 0 1089.3 200" style="enable-background:new 0 0 1089.3 200;" xml:space="preserve">
<style type="text/css">
	.st0{fill:none;}
	.st1{fill:#BCBCBC;}
	.st2{fill:#31E7B6;}
	.st3{fill:#5471F9;}
	.st4{font-family:'Roboto-Medium';}
	.st5{font-size:95.2982px;}
</style>
<rect x="-224.7" y="-25.6" class="st0" width="1122.9" height="251.2"/>
<g id="XMLID_1050_">
	<g>
		<path class="st1" d="M511.9,75.8h-30.8v21.5h27.8v8.1h-27.8v21.5h30.8v8.3h-39.5V67.5h39.5V75.8z"/>
		<path class="st1" d="M557.9,135.2h-10.2l-11.4-17.1L525,135.2h-10.2l16.4-23.5l-16-22.8h9.8l11.4,16.4l10.9-16.4h10.2l-16.2,22.8
			L557.9,135.2z"/>
		<path class="st1" d="M582.1,136c-4.9,0-8.6-1.3-11.1-3.9c-2.6-2.6-3.8-6.2-3.8-11V96.8H559v-7.9h8.1V74.7h8.7v14.2h11.3v7.9h-11.3
			v23.6c0,5,2.1,7.6,6.2,7.6c1.6,0,2.9-0.3,4-0.8l3,7.5C587.2,135.5,584.8,136,582.1,136z"/>
		<path class="st1" d="M614.1,136.7c-7,0-12.7-2.3-17.1-7c-4.4-4.7-6.6-10.6-6.6-17.7c0-6.7,2.1-12.5,6.4-17.4
			c4.3-4.9,9.7-7.3,16.3-7.3c6.9,0,12.4,2.2,16.5,6.7c4.1,4.5,6.2,10.5,6.2,18l-0.1,1.6h-36.6c0.3,4.7,1.8,8.4,4.7,11.1
			c2.9,2.7,6.2,4.1,10.1,4.1c6.2,0,10.5-2.6,12.7-7.9l7.8,3.2c-1.5,3.6-4,6.6-7.5,9C623.4,135.5,619.2,136.7,614.1,136.7z
			 M626.6,106.5c-0.2-2.6-1.4-5.2-3.6-7.6c-2.2-2.4-5.6-3.6-10-3.6c-3.2,0-6,1-8.4,3c-2.4,2-4,4.7-4.9,8.1H626.6z"/>
		<path class="st1" d="M650.2,88.9v6.4h0.4c1.3-2.2,3.2-4.1,6-5.6c2.7-1.5,5.6-2.3,8.7-2.3c5.7,0,10.1,1.8,13.1,5.3
			c3,3.5,4.5,8.3,4.5,14.2v28.4h-8.7v-27c0-8.6-3.8-12.9-11.4-12.9c-3.6,0-6.5,1.4-8.8,4.3c-2.3,2.9-3.4,6.2-3.4,10v25.6h-8.7V88.9
			H650.2z"/>
		<path class="st1" d="M710.7,136.7c-6,0-11.2-2.4-15.5-7.1c-4.3-4.7-6.5-10.6-6.5-17.6c0-7,2.2-12.9,6.5-17.6
			c4.3-4.7,9.5-7.1,15.5-7.1c3.5,0,6.7,0.8,9.5,2.3c2.8,1.5,4.9,3.4,6.3,5.7h0.4l-0.4-6.4V67.5h8.7v67.7h-8.3v-6.4h-0.4
			c-1.4,2.3-3.5,4.2-6.3,5.7C717.4,136,714.2,136.7,710.7,136.7z M712.1,128.8c4.1,0,7.6-1.5,10.4-4.5c2.9-3,4.3-7.1,4.3-12.2
			c0-5.1-1.4-9.2-4.3-12.2c-2.9-3-6.4-4.5-10.4-4.5c-4,0-7.5,1.5-10.4,4.6c-2.9,3.1-4.3,7.1-4.3,12.2c0,5,1.4,9.1,4.3,12.2
			C704.6,127.2,708.1,128.8,712.1,128.8z"/>
		<path class="st1" d="M764.4,136.7c-7,0-12.7-2.3-17.1-7c-4.4-4.7-6.6-10.6-6.6-17.7c0-6.7,2.1-12.5,6.4-17.4
			c4.3-4.9,9.7-7.3,16.3-7.3c6.9,0,12.4,2.2,16.5,6.7c4.1,4.5,6.2,10.5,6.2,18l-0.1,1.6h-36.6c0.3,4.7,1.8,8.4,4.7,11.1
			c2.9,2.7,6.2,4.1,10.1,4.1c6.2,0,10.5-2.6,12.7-7.9l7.8,3.2c-1.5,3.6-4,6.6-7.5,9C773.7,135.5,769.4,136.7,764.4,136.7z
			 M776.9,106.5c-0.2-2.6-1.4-5.2-3.6-7.6c-2.2-2.4-5.6-3.6-10-3.6c-3.2,0-6,1-8.4,3c-2.4,2-4,4.7-4.9,8.1H776.9z"/>
		<path class="st1" d="M812,136.7c-6,0-11.2-2.4-15.5-7.1c-4.3-4.7-6.5-10.6-6.5-17.6c0-7,2.2-12.9,6.5-17.6
			c4.3-4.7,9.5-7.1,15.5-7.1c3.5,0,6.7,0.8,9.5,2.3c2.8,1.5,4.9,3.4,6.3,5.7h0.4l-0.4-6.4V67.5h8.7v67.7h-8.3v-6.4h-0.4
			c-1.4,2.3-3.5,4.2-6.3,5.7C818.7,136,815.6,136.7,812,136.7z M813.5,128.8c4.1,0,7.6-1.5,10.4-4.5c2.9-3,4.3-7.1,4.3-12.2
			c0-5.1-1.4-9.2-4.3-12.2c-2.9-3-6.4-4.5-10.4-4.5c-4,0-7.5,1.5-10.4,4.6c-2.9,3.1-4.3,7.1-4.3,12.2c0,5,1.4,9.1,4.3,12.2
			C806,127.2,809.4,128.8,813.5,128.8z"/>
	</g>
</g>
<rect id="XMLID_1025_" x="186.5" y="36.6" class="st2" width="62.8" height="125.5"/>
<path id="XMLID_1023_" class="st2" d="M365.9,34.4c-35.9,0-65,29.1-65,65c0,35.9,29.1,65,65,65s65-29.1,65-65
	C430.9,63.5,401.8,34.4,365.9,34.4z"/>
<rect id="XMLID_1022_" x="191.2" y="96.7" transform="matrix(0.2206 -0.9754 0.9754 0.2206 119.7756 352.5873)" class="st3" width="178.7" height="9.3"/>
<text transform="matrix(1 0 0 1 848.6752 135.1089)" class="st1 st4 st5">IUT</text>
</svg>
