<?xml version="1.0" encoding="utf-8"?>
<!-- Generator: Adobe Illustrator 21.0.1, SVG Export Plug-In . SVG Version: 6.00 Build 0)  -->
<svg version="1.1" id="Layer_4" xmlns="http://www.w3.org/2000/svg" xmlns:xlink="http://www.w3.org/1999/xlink" x="0px" y="0px"
	 viewBox="0 0 1089.3 200" style="enable-background:new 0 0 1089.3 200;" xml:space="preserve">
<style type="text/css">
	.st0{fill:none;}
	.st1{fill:#BCBCBC;}
	.st2{font-family:'Roboto-Medium';}
	.st3{font-size:100.7379px;}
</style>
<rect x="-246.7" y="-34.9" class="st0" width="1187" height="265.5"/>
<g id="XMLID_1050_">
	<g>
		<path class="st1" d="M532,72.3h-32.6V95h29.4v8.6h-29.4v22.7H532v8.8h-41.8V63.5H532V72.3z"/>
		<path class="st1" d="M580.5,135h-10.8l-12.1-18.1L545.8,135H535l17.3-24.9l-16.9-24.1h10.4l12.1,17.3l11.5-17.3h10.8L563,110.1
			L580.5,135z"/>
		<path class="st1" d="M606.1,135.8c-5.1,0-9-1.4-11.7-4.1c-2.7-2.7-4-6.6-4-11.6V94.5h-8.6v-8.4h8.6v-15h9.2v15h12v8.4h-12v25
			c0,5.3,2.2,8,6.6,8c1.7,0,3.1-0.3,4.2-0.8l3.2,7.9C611.5,135.4,609.1,135.8,606.1,135.8z"/>
		<path class="st1" d="M640,136.6c-7.4,0-13.4-2.5-18-7.4c-4.6-4.9-6.9-11.2-6.9-18.7c0-7.1,2.2-13.3,6.7-18.4
			c4.5-5.1,10.2-7.7,17.2-7.7c7.3,0,13.1,2.4,17.4,7.1c4.4,4.7,6.5,11.1,6.5,19l-0.1,1.7h-38.7c0.3,4.9,1.9,8.8,4.9,11.7
			c3,2.9,6.6,4.3,10.6,4.3c6.6,0,11.1-2.8,13.4-8.4l8.2,3.4c-1.6,3.8-4.2,7-7.9,9.5C649.8,135.4,645.3,136.6,640,136.6z
			 M653.2,104.7c-0.2-2.8-1.5-5.5-3.8-8c-2.4-2.5-5.9-3.8-10.5-3.8c-3.4,0-6.3,1.1-8.8,3.2c-2.5,2.1-4.2,5-5.1,8.6H653.2z"/>
		<path class="st1" d="M678.2,86.1v6.8h0.4c1.3-2.3,3.4-4.3,6.3-5.9c2.9-1.6,5.9-2.4,9.2-2.4c6.1,0,10.7,1.9,13.9,5.6
			c3.2,3.7,4.8,8.7,4.8,15v30h-9.2v-28.6c0-9.1-4-13.6-12.1-13.6c-3.8,0-6.9,1.5-9.3,4.5c-2.4,3-3.6,6.5-3.6,10.5V135h-9.2v-49
			H678.2z"/>
		<path class="st1" d="M742.1,136.6c-6.3,0-11.8-2.5-16.4-7.5c-4.6-5-6.9-11.2-6.9-18.6c0-7.4,2.3-13.6,6.9-18.6s10.1-7.5,16.4-7.5
			c3.7,0,7.1,0.8,10,2.4c3,1.6,5.2,3.6,6.6,6h0.4l-0.4-6.8V63.5h9.2V135h-8.8v-6.8h-0.4c-1.5,2.4-3.7,4.4-6.6,6
			C749.1,135.8,745.8,136.6,742.1,136.6z M743.6,128.2c4.3,0,8-1.6,11-4.8c3-3.2,4.5-7.5,4.5-12.9c0-5.4-1.5-9.7-4.5-12.9
			c-3-3.2-6.7-4.8-11-4.8c-4.3,0-7.9,1.6-11,4.8c-3.1,3.2-4.6,7.5-4.6,12.8c0,5.3,1.5,9.6,4.6,12.8
			C735.6,126.6,739.3,128.2,743.6,128.2z"/>
		<path class="st1" d="M798.8,136.6c-7.4,0-13.4-2.5-18-7.4c-4.6-4.9-6.9-11.2-6.9-18.7c0-7.1,2.2-13.3,6.7-18.4
			c4.5-5.1,10.2-7.7,17.2-7.7c7.3,0,13.1,2.4,17.4,7.1c4.4,4.7,6.5,11.1,6.5,19l-0.1,1.7H783c0.3,4.9,1.9,8.8,4.9,11.7
			c3,2.9,6.6,4.3,10.6,4.3c6.6,0,11.1-2.8,13.4-8.4l8.2,3.4c-1.6,3.8-4.2,7-7.9,9.5C808.7,135.4,804.2,136.6,798.8,136.6z
			 M812,104.7c-0.2-2.8-1.5-5.5-3.8-8c-2.4-2.5-5.9-3.8-10.5-3.8c-3.4,0-6.3,1.1-8.8,3.2c-2.5,2.1-4.2,5-5.1,8.6H812z"/>
		<path class="st1" d="M849.2,136.6c-6.3,0-11.8-2.5-16.4-7.5c-4.6-5-6.9-11.2-6.9-18.6c0-7.4,2.3-13.6,6.9-18.6s10.1-7.5,16.4-7.5
			c3.7,0,7.1,0.8,10,2.4c3,1.6,5.2,3.6,6.6,6h0.4l-0.4-6.8V63.5h9.2V135h-8.8v-6.8h-0.4c-1.5,2.4-3.7,4.4-6.6,6
			C856.3,135.8,852.9,136.6,849.2,136.6z M850.7,128.2c4.3,0,8-1.6,11-4.8c3-3.2,4.5-7.5,4.5-12.9c0-5.4-1.5-9.7-4.5-12.9
			c-3-3.2-6.7-4.8-11-4.8c-4.3,0-7.9,1.6-11,4.8c-3.1,3.2-4.6,7.5-4.6,12.8c0,5.3,1.5,9.6,4.6,12.8
			C842.8,126.6,846.4,128.2,850.7,128.2z"/>
	</g>
</g>
<rect id="XMLID_1025_" x="188" y="30.8" class="st1" width="66.4" height="132.7"/>
<path id="XMLID_1023_" class="st1" d="M377.6,28.5c-38,0-68.7,30.8-68.7,68.7s30.8,68.7,68.7,68.7s68.7-30.8,68.7-68.7
	S415.5,28.5,377.6,28.5z"/>
<rect id="XMLID_1022_" x="192.9" y="94.4" transform="matrix(0.2206 -0.9754 0.9754 0.2206 127.1447 357.6259)" class="st1" width="188.9" height="9.8"/>
<text transform="matrix(1 0 0 1 887.9443 134.9443)" class="st1 st2 st3">IUT</text>
</svg>
