<?xml version="1.0" encoding="utf-8"?>
<!-- Generator: Adobe Illustrator 21.0.1, SVG Export Plug-In . SVG Version: 6.00 Build 0)  -->
<svg version="1.1" id="Layer_4" xmlns="http://www.w3.org/2000/svg" xmlns:xlink="http://www.w3.org/1999/xlink" x="0px" y="0px"
	 viewBox="0 0 839 200" style="enable-background:new 0 0 839 200;" xml:space="preserve">
<style type="text/css">
	.st0{fill:none;}
	.st1{fill:#FFFFFF;}
	.st2{font-family:'Roboto-Medium';}
	.st3{font-size:85.8357px;}
</style>
<rect x="-326.7" y="-24.3" class="st0" width="1110" height="248.3"/>
<g id="XMLID_1062_">
	<g>
		<path class="st1" d="M358.1,74.6h-30.5v21.2h27.5v8h-27.5v21.2h30.5v8.2h-39.1V66.4h39.1V74.6z"/>
		<path class="st1" d="M403.6,133.3h-10.1l-11.3-16.9L371,133.3h-10.1l16.2-23.3l-15.8-22.5h9.7l11.3,16.2l10.7-16.2h10.1l-16,22.5
			L403.6,133.3z"/>
		<path class="st1" d="M427.5,134.1c-4.8,0-8.5-1.3-11-3.8c-2.5-2.6-3.8-6.2-3.8-10.8v-24h-8v-7.9h8v-14h8.6v14h11.2v7.9h-11.2v23.4
			c0,5,2.1,7.5,6.2,7.5c1.6,0,2.9-0.2,3.9-0.7l3,7.4C432.5,133.7,430.2,134.1,427.5,134.1z"/>
		<path class="st1" d="M459.2,134.8c-6.9,0-12.5-2.3-16.9-6.9c-4.3-4.6-6.5-10.4-6.5-17.5c0-6.7,2.1-12.4,6.3-17.2
			c4.2-4.8,9.6-7.2,16.1-7.2c6.8,0,12.2,2.2,16.3,6.6c4.1,4.4,6.1,10.3,6.1,17.8l-0.1,1.6h-36.2c0.2,4.6,1.8,8.3,4.6,10.9
			c2.8,2.7,6.2,4,10,4c6.2,0,10.3-2.6,12.5-7.9l7.7,3.2c-1.5,3.6-4,6.5-7.4,8.9C468.4,133.6,464.2,134.8,459.2,134.8z M471.5,104.9
			c-0.2-2.6-1.4-5.1-3.6-7.5c-2.2-2.4-5.5-3.6-9.9-3.6c-3.2,0-5.9,1-8.3,3c-2.3,2-3.9,4.7-4.8,8H471.5z"/>
		<path class="st1" d="M494.9,87.5v6.4h0.4c1.2-2.2,3.2-4,5.9-5.6c2.7-1.5,5.5-2.3,8.6-2.3c5.7,0,10,1.7,13,5.2
			c3,3.5,4.5,8.2,4.5,14v28h-8.6v-26.7c0-8.5-3.8-12.7-11.3-12.7c-3.6,0-6.4,1.4-8.7,4.3c-2.2,2.8-3.4,6.1-3.4,9.9v25.3h-8.6V87.5
			H494.9z"/>
		<path class="st1" d="M554.6,134.8c-5.9,0-11-2.3-15.3-7c-4.3-4.7-6.4-10.5-6.4-17.4c0-6.9,2.2-12.7,6.4-17.4c4.3-4.7,9.4-7,15.3-7
			c3.5,0,6.6,0.7,9.4,2.2c2.8,1.5,4.8,3.4,6.2,5.6h0.4l-0.4-6.4V66.4h8.6v66.9h-8.2V127h-0.4c-1.4,2.2-3.4,4.1-6.2,5.6
			C561.2,134.1,558.1,134.8,554.6,134.8z M556,127c4,0,7.5-1.5,10.3-4.5c2.8-3,4.3-7,4.3-12.1c0-5-1.4-9.1-4.3-12.1
			c-2.8-3-6.3-4.5-10.3-4.5c-4,0-7.4,1.5-10.3,4.5c-2.9,3-4.3,7-4.3,12c0,5,1.4,9,4.3,12C548.6,125.5,552,127,556,127z"/>
		<path class="st1" d="M607.7,134.8c-6.9,0-12.5-2.3-16.9-6.9c-4.3-4.6-6.5-10.4-6.5-17.5c0-6.7,2.1-12.4,6.3-17.2
			c4.2-4.8,9.6-7.2,16.1-7.2c6.8,0,12.2,2.2,16.3,6.6c4.1,4.4,6.1,10.3,6.1,17.8l-0.1,1.6h-36.2c0.2,4.6,1.8,8.3,4.6,10.9
			c2.8,2.7,6.2,4,10,4c6.2,0,10.3-2.6,12.5-7.9l7.7,3.2c-1.5,3.6-4,6.5-7.4,8.9C616.9,133.6,612.7,134.8,607.7,134.8z M620,104.9
			c-0.2-2.6-1.4-5.1-3.6-7.5c-2.2-2.4-5.5-3.6-9.9-3.6c-3.2,0-5.9,1-8.3,3c-2.3,2-3.9,4.7-4.8,8H620z"/>
		<path class="st1" d="M654.8,134.8c-5.9,0-11-2.3-15.3-7c-4.3-4.7-6.4-10.5-6.4-17.4c0-6.9,2.2-12.7,6.4-17.4c4.3-4.7,9.4-7,15.3-7
			c3.5,0,6.6,0.7,9.4,2.2c2.8,1.5,4.8,3.4,6.2,5.6h0.4l-0.4-6.4V66.4h8.6v66.9h-8.2V127h-0.4c-1.4,2.2-3.4,4.1-6.2,5.6
			C661.4,134.1,658.3,134.8,654.8,134.8z M656.2,127c4,0,7.5-1.5,10.3-4.5c2.8-3,4.3-7,4.3-12.1c0-5-1.4-9.1-4.3-12.1
			c-2.8-3-6.3-4.5-10.3-4.5c-4,0-7.4,1.5-10.3,4.5c-2.9,3-4.3,7-4.3,12c0,5,1.4,9,4.3,12C648.8,125.5,652.2,127,656.2,127z"/>
	</g>
</g>
<rect id="XMLID_949_" x="36.5" y="35.9" class="st1" width="62" height="124.1"/>
<path id="XMLID_947_" class="st1" d="M213.8,33.7c-35.5,0-64.3,28.8-64.3,64.3s28.8,64.3,64.3,64.3S278,133.4,278,97.9
	S249.3,33.7,213.8,33.7z"/>
<rect id="XMLID_946_" x="41.1" y="95.3" transform="matrix(0.2206 -0.9754 0.9754 0.2206 3.4577 204.0482)" class="st1" width="176.6" height="9.2"/>
<text transform="matrix(1 0 0 1 695.4331 134.8181)" class="st1 st2 st3">IUT</text>
</svg>
