<?xml version="1.0" encoding="utf-8"?>
<!-- Generator: Adobe Illustrator 21.0.1, SVG Export Plug-In . SVG Version: 6.00 Build 0)  -->
<svg version="1.1" id="Layer_4" xmlns="http://www.w3.org/2000/svg" xmlns:xlink="http://www.w3.org/1999/xlink" x="0px" y="0px"
	 viewBox="0 0 839 200" style="enable-background:new 0 0 839 200;" xml:space="preserve">
<style type="text/css">
	.st0{fill:none;}
	.st1{stroke:#FFFFFF;stroke-miterlimit:10;}
	.st2{font-family:'Roboto-Medium';}
	.st3{font-size:85.8357px;}
</style>
<rect x="-326.7" y="-24.3" class="st0" width="1110" height="248.3"/>
<g id="XMLID_1062_">
	<g>
		<path class="st1" d="M351.6,76.7h-30.5v21.2h27.5v8h-27.5v21.2h30.5v8.2h-39.1V68.5h39.1V76.7z"/>
		<path class="st1" d="M397,135.4h-10.1l-11.3-16.9l-11.1,16.9h-10.1l16.2-23.3l-15.8-22.5h9.7l11.3,16.2l10.7-16.2h10.1l-16,22.5
			L397,135.4z"/>
		<path class="st1" d="M420.9,136.1c-4.8,0-8.5-1.3-11-3.8c-2.5-2.6-3.8-6.2-3.8-10.8v-24h-8v-7.9h8v-14h8.6v14H426v7.9h-11.2v23.4
			c0,5,2.1,7.5,6.2,7.5c1.6,0,2.9-0.2,3.9-0.7l3,7.4C426,135.7,423.7,136.1,420.9,136.1z"/>
		<path class="st1" d="M452.6,136.9c-6.9,0-12.5-2.3-16.9-6.9c-4.3-4.6-6.5-10.4-6.5-17.5c0-6.7,2.1-12.4,6.3-17.2
			c4.2-4.8,9.6-7.2,16.1-7.2c6.8,0,12.2,2.2,16.3,6.6c4.1,4.4,6.1,10.3,6.1,17.8l-0.1,1.6h-36.2c0.2,4.6,1.8,8.3,4.6,10.9
			c2.8,2.7,6.2,4,10,4c6.2,0,10.3-2.6,12.5-7.9l7.7,3.2c-1.5,3.6-4,6.5-7.4,8.9C461.8,135.7,457.6,136.9,452.6,136.9z M465,107
			c-0.2-2.6-1.4-5.1-3.6-7.5c-2.2-2.4-5.5-3.6-9.9-3.6c-3.2,0-5.9,1-8.3,3c-2.3,2-3.9,4.7-4.8,8H465z"/>
		<path class="st1" d="M488.3,89.6V96h0.4c1.2-2.2,3.2-4,5.9-5.6c2.7-1.5,5.5-2.3,8.6-2.3c5.7,0,10,1.7,13,5.2c3,3.5,4.5,8.2,4.5,14
			v28h-8.6v-26.7c0-8.5-3.8-12.7-11.3-12.7c-3.6,0-6.4,1.4-8.7,4.3c-2.2,2.8-3.4,6.1-3.4,9.9v25.3h-8.6V89.6H488.3z"/>
		<path class="st1" d="M548,136.9c-5.9,0-11-2.3-15.3-7c-4.3-4.7-6.4-10.5-6.4-17.4c0-6.9,2.2-12.7,6.4-17.4c4.3-4.7,9.4-7,15.3-7
			c3.5,0,6.6,0.7,9.4,2.2c2.8,1.5,4.8,3.4,6.2,5.6h0.4l-0.4-6.4V68.5h8.6v66.9H564V129h-0.4c-1.4,2.2-3.4,4.1-6.2,5.6
			C554.7,136.1,551.5,136.9,548,136.9z M549.4,129c4,0,7.5-1.5,10.3-4.5c2.8-3,4.3-7,4.3-12.1c0-5-1.4-9.1-4.3-12.1
			c-2.8-3-6.3-4.5-10.3-4.5c-4,0-7.4,1.5-10.3,4.5c-2.9,3-4.3,7-4.3,12c0,5,1.4,9,4.3,12C542,127.5,545.5,129,549.4,129z"/>
		<path class="st1" d="M601.1,136.9c-6.9,0-12.5-2.3-16.9-6.9c-4.3-4.6-6.5-10.4-6.5-17.5c0-6.7,2.1-12.4,6.3-17.2
			c4.2-4.8,9.6-7.2,16.1-7.2c6.8,0,12.2,2.2,16.3,6.6c4.1,4.4,6.1,10.3,6.1,17.8l-0.1,1.6h-36.2c0.2,4.6,1.8,8.3,4.6,10.9
			c2.8,2.7,6.2,4,10,4c6.2,0,10.3-2.6,12.5-7.9l7.7,3.2c-1.5,3.6-4,6.5-7.4,8.9C610.3,135.7,606.1,136.9,601.1,136.9z M613.5,107
			c-0.2-2.6-1.4-5.1-3.6-7.5c-2.2-2.4-5.5-3.6-9.9-3.6c-3.2,0-5.9,1-8.3,3c-2.3,2-3.9,4.7-4.8,8H613.5z"/>
		<path class="st1" d="M648.2,136.9c-5.9,0-11-2.3-15.3-7c-4.3-4.7-6.4-10.5-6.4-17.4c0-6.9,2.2-12.7,6.4-17.4c4.3-4.7,9.4-7,15.3-7
			c3.5,0,6.6,0.7,9.4,2.2c2.8,1.5,4.8,3.4,6.2,5.6h0.4l-0.4-6.4V68.5h8.6v66.9h-8.2V129h-0.4c-1.4,2.2-3.4,4.1-6.2,5.6
			C654.9,136.1,651.7,136.9,648.2,136.9z M649.6,129c4,0,7.5-1.5,10.3-4.5c2.8-3,4.3-7,4.3-12.1c0-5-1.4-9.1-4.3-12.1
			c-2.8-3-6.3-4.5-10.3-4.5c-4,0-7.4,1.5-10.3,4.5c-2.9,3-4.3,7-4.3,12c0,5,1.4,9,4.3,12C642.2,127.5,645.7,129,649.6,129z"/>
	</g>
</g>
<rect id="XMLID_949_" x="29.9" y="38" class="st1" width="62" height="124.1"/>
<path id="XMLID_947_" class="st1" d="M207.2,35.7c-35.5,0-64.3,28.8-64.3,64.3c0,35.5,28.8,64.3,64.3,64.3s64.3-28.8,64.3-64.3
	C271.5,64.5,242.7,35.7,207.2,35.7z"/>
<rect id="XMLID_946_" x="34.5" y="97.4" transform="matrix(0.2206 -0.9754 0.9754 0.2206 -3.6864 199.2644)" class="st1" width="176.6" height="9.2"/>
<text transform="matrix(1 0 0 1 688.868 134.3534)" class="st2 st3">IUT</text>
</svg>
